<svg width="320" height="320" viewBox="0 0 320 320" fill="none" xmlns="http://www.w3.org/2000/svg">
<g opacity="0.1">
<path d="M3 1.5C3 2.32843 2.32843 3 1.5 3C0.671573 3 0 2.32843 0 1.5C0 0.671573 0.671573 0 1.5 0C2.32843 0 3 0.671573 3 1.5Z" fill="black"/>
<path d="M23 1.5C23 2.32843 22.3284 3 21.5 3C20.6716 3 20 2.32843 20 1.5C20 0.671573 20.6716 0 21.5 0C22.3284 0 23 0.671573 23 1.5Z" fill="black"/>
<path d="M3 21.5C3 22.3284 2.32843 23 1.5 23C0.671573 23 0 22.3284 0 21.5C0 20.6716 0.671573 20 1.5 20C2.32843 20 3 20.6716 3 21.5Z" fill="black"/>
<path d="M23 21.5C23 22.3284 22.3284 23 21.5 23C20.6716 23 20 22.3284 20 21.5C20 20.6716 20.6716 20 21.5 20C22.3284 20 23 20.6716 23 21.5Z" fill="black"/>
<path d="M43 1.5C43 2.32843 42.3284 3 41.5 3C40.6716 3 40 2.32843 40 1.5C40 0.671573 40.6716 0 41.5 0C42.3284 0 43 0.671573 43 1.5Z" fill="black"/>
<path d="M63 1.5C63 2.32843 62.3284 3 61.5 3C60.6716 3 60 2.32843 60 1.5C60 0.671573 60.6716 0 61.5 0C62.3284 0 63 0.671573 63 1.5Z" fill="black"/>
<path d="M43 21.5C43 22.3284 42.3284 23 41.5 23C40.6716 23 40 22.3284 40 21.5C40 20.6716 40.6716 20 41.5 20C42.3284 20 43 20.6716 43 21.5Z" fill="black"/>
<path d="M63 21.5C63 22.3284 62.3284 23 61.5 23C60.6716 23 60 22.3284 60 21.5C60 20.6716 60.6716 20 61.5 20C62.3284 20 63 20.6716 63 21.5Z" fill="black"/>
<path d="M83 1.5C83 2.32843 82.3284 3 81.5 3C80.6716 3 80 2.32843 80 1.5C80 0.671573 80.6716 0 81.5 0C82.3284 0 83 0.671573 83 1.5Z" fill="black"/>
<path d="M103 1.5C103 2.32843 102.328 3 101.5 3C100.672 3 100 2.32843 100 1.5C100 0.671573 100.672 0 101.5 0C102.328 0 103 0.671573 103 1.5Z" fill="black"/>
<path d="M83 21.5C83 22.3284 82.3284 23 81.5 23C80.6716 23 80 22.3284 80 21.5C80 20.6716 80.6716 20 81.5 20C82.3284 20 83 20.6716 83 21.5Z" fill="black"/>
<path d="M103 21.5C103 22.3284 102.328 23 101.5 23C100.672 23 100 22.3284 100 21.5C100 20.6716 100.672 20 101.5 20C102.328 20 103 20.6716 103 21.5Z" fill="black"/>
<path d="M123 1.5C123 2.32843 122.328 3 121.5 3C120.672 3 120 2.32843 120 1.5C120 0.671573 120.672 0 121.5 0C122.328 0 123 0.671573 123 1.5Z" fill="black"/>
<path d="M143 1.5C143 2.32843 142.328 3 141.5 3C140.672 3 140 2.32843 140 1.5C140 0.671573 140.672 0 141.5 0C142.328 0 143 0.671573 143 1.5Z" fill="black"/>
<path d="M123 21.5C123 22.3284 122.328 23 121.5 23C120.672 23 120 22.3284 120 21.5C120 20.6716 120.672 20 121.5 20C122.328 20 123 20.6716 123 21.5Z" fill="black"/>
<path d="M143 21.5C143 22.3284 142.328 23 141.5 23C140.672 23 140 22.3284 140 21.5C140 20.6716 140.672 20 141.5 20C142.328 20 143 20.6716 143 21.5Z" fill="black"/>
<path d="M163 1.5C163 2.32843 162.328 3 161.5 3C160.672 3 160 2.32843 160 1.5C160 0.671573 160.672 0 161.5 0C162.328 0 163 0.671573 163 1.5Z" fill="black"/>
<path d="M183 1.5C183 2.32843 182.328 3 181.5 3C180.672 3 180 2.32843 180 1.5C180 0.671573 180.672 0 181.5 0C182.328 0 183 0.671573 183 1.5Z" fill="black"/>
<path d="M163 21.5C163 22.3284 162.328 23 161.5 23C160.672 23 160 22.3284 160 21.5C160 20.6716 160.672 20 161.5 20C162.328 20 163 20.6716 163 21.5Z" fill="black"/>
<path d="M183 21.5C183 22.3284 182.328 23 181.5 23C180.672 23 180 22.3284 180 21.5C180 20.6716 180.672 20 181.5 20C182.328 20 183 20.6716 183 21.5Z" fill="black"/>
<path d="M203 1.5C203 2.32843 202.328 3 201.5 3C200.672 3 200 2.32843 200 1.5C200 0.671573 200.672 0 201.5 0C202.328 0 203 0.671573 203 1.5Z" fill="black"/>
<path d="M223 1.5C223 2.32843 222.328 3 221.5 3C220.672 3 220 2.32843 220 1.5C220 0.671573 220.672 0 221.5 0C222.328 0 223 0.671573 223 1.5Z" fill="black"/>
<path d="M203 21.5C203 22.3284 202.328 23 201.5 23C200.672 23 200 22.3284 200 21.5C200 20.6716 200.672 20 201.5 20C202.328 20 203 20.6716 203 21.5Z" fill="black"/>
<path d="M223 21.5C223 22.3284 222.328 23 221.5 23C220.672 23 220 22.3284 220 21.5C220 20.6716 220.672 20 221.5 20C222.328 20 223 20.6716 223 21.5Z" fill="black"/>
<path d="M243 1.5C243 2.32843 242.328 3 241.5 3C240.672 3 240 2.32843 240 1.5C240 0.671573 240.672 0 241.5 0C242.328 0 243 0.671573 243 1.5Z" fill="black"/>
<path d="M263 1.5C263 2.32843 262.328 3 261.5 3C260.672 3 260 2.32843 260 1.5C260 0.671573 260.672 0 261.5 0C262.328 0 263 0.671573 263 1.5Z" fill="black"/>
<path d="M243 21.5C243 22.3284 242.328 23 241.5 23C240.672 23 240 22.3284 240 21.5C240 20.6716 240.672 20 241.5 20C242.328 20 243 20.6716 243 21.5Z" fill="black"/>
<path d="M263 21.5C263 22.3284 262.328 23 261.5 23C260.672 23 260 22.3284 260 21.5C260 20.6716 260.672 20 261.5 20C262.328 20 263 20.6716 263 21.5Z" fill="black"/>
<path d="M283 1.5C283 2.32843 282.328 3 281.5 3C280.672 3 280 2.32843 280 1.5C280 0.671573 280.672 0 281.5 0C282.328 0 283 0.671573 283 1.5Z" fill="black"/>
<path d="M303 1.5C303 2.32843 302.328 3 301.5 3C300.672 3 300 2.32843 300 1.5C300 0.671573 300.672 0 301.5 0C302.328 0 303 0.671573 303 1.5Z" fill="black"/>
<path d="M283 21.5C283 22.3284 282.328 23 281.5 23C280.672 23 280 22.3284 280 21.5C280 20.6716 280.672 20 281.5 20C282.328 20 283 20.6716 283 21.5Z" fill="black"/>
<path d="M303 21.5C303 22.3284 302.328 23 301.5 23C300.672 23 300 22.3284 300 21.5C300 20.6716 300.672 20 301.5 20C302.328 20 303 20.6716 303 21.5Z" fill="black"/>
<path d="M3 41.5C3 42.3284 2.32843 43 1.5 43C0.671573 43 0 42.3284 0 41.5C0 40.6716 0.671573 40 1.5 40C2.32843 40 3 40.6716 3 41.5Z" fill="black"/>
<path d="M23 41.5C23 42.3284 22.3284 43 21.5 43C20.6716 43 20 42.3284 20 41.5C20 40.6716 20.6716 40 21.5 40C22.3284 40 23 40.6716 23 41.5Z" fill="black"/>
<path d="M3 61.5C3 62.3284 2.32843 63 1.5 63C0.671573 63 0 62.3284 0 61.5C0 60.6716 0.671573 60 1.5 60C2.32843 60 3 60.6716 3 61.5Z" fill="black"/>
<path d="M23 61.5C23 62.3284 22.3284 63 21.5 63C20.6716 63 20 62.3284 20 61.5C20 60.6716 20.6716 60 21.5 60C22.3284 60 23 60.6716 23 61.5Z" fill="black"/>
<path d="M43 41.5C43 42.3284 42.3284 43 41.5 43C40.6716 43 40 42.3284 40 41.5C40 40.6716 40.6716 40 41.5 40C42.3284 40 43 40.6716 43 41.5Z" fill="black"/>
<path d="M63 41.5C63 42.3284 62.3284 43 61.5 43C60.6716 43 60 42.3284 60 41.5C60 40.6716 60.6716 40 61.5 40C62.3284 40 63 40.6716 63 41.5Z" fill="black"/>
<path d="M43 61.5C43 62.3284 42.3284 63 41.5 63C40.6716 63 40 62.3284 40 61.5C40 60.6716 40.6716 60 41.5 60C42.3284 60 43 60.6716 43 61.5Z" fill="black"/>
<path d="M63 61.5C63 62.3284 62.3284 63 61.5 63C60.6716 63 60 62.3284 60 61.5C60 60.6716 60.6716 60 61.5 60C62.3284 60 63 60.6716 63 61.5Z" fill="black"/>
<path d="M83 41.5C83 42.3284 82.3284 43 81.5 43C80.6716 43 80 42.3284 80 41.5C80 40.6716 80.6716 40 81.5 40C82.3284 40 83 40.6716 83 41.5Z" fill="black"/>
<path d="M103 41.5C103 42.3284 102.328 43 101.5 43C100.672 43 100 42.3284 100 41.5C100 40.6716 100.672 40 101.5 40C102.328 40 103 40.6716 103 41.5Z" fill="black"/>
<path d="M83 61.5C83 62.3284 82.3284 63 81.5 63C80.6716 63 80 62.3284 80 61.5C80 60.6716 80.6716 60 81.5 60C82.3284 60 83 60.6716 83 61.5Z" fill="black"/>
<path d="M103 61.5C103 62.3284 102.328 63 101.5 63C100.672 63 100 62.3284 100 61.5C100 60.6716 100.672 60 101.5 60C102.328 60 103 60.6716 103 61.5Z" fill="black"/>
<path d="M123 41.5C123 42.3284 122.328 43 121.5 43C120.672 43 120 42.3284 120 41.5C120 40.6716 120.672 40 121.5 40C122.328 40 123 40.6716 123 41.5Z" fill="black"/>
<path d="M143 41.5C143 42.3284 142.328 43 141.5 43C140.672 43 140 42.3284 140 41.5C140 40.6716 140.672 40 141.5 40C142.328 40 143 40.6716 143 41.5Z" fill="black"/>
<path d="M123 61.5C123 62.3284 122.328 63 121.5 63C120.672 63 120 62.3284 120 61.5C120 60.6716 120.672 60 121.5 60C122.328 60 123 60.6716 123 61.5Z" fill="black"/>
<path d="M143 61.5C143 62.3284 142.328 63 141.5 63C140.672 63 140 62.3284 140 61.5C140 60.6716 140.672 60 141.5 60C142.328 60 143 60.6716 143 61.5Z" fill="black"/>
<path d="M163 41.5C163 42.3284 162.328 43 161.5 43C160.672 43 160 42.3284 160 41.5C160 40.6716 160.672 40 161.5 40C162.328 40 163 40.6716 163 41.5Z" fill="black"/>
<path d="M183 41.5C183 42.3284 182.328 43 181.5 43C180.672 43 180 42.3284 180 41.5C180 40.6716 180.672 40 181.5 40C182.328 40 183 40.6716 183 41.5Z" fill="black"/>
<path d="M163 61.5C163 62.3284 162.328 63 161.5 63C160.672 63 160 62.3284 160 61.5C160 60.6716 160.672 60 161.5 60C162.328 60 163 60.6716 163 61.5Z" fill="black"/>
<path d="M183 61.5C183 62.3284 182.328 63 181.5 63C180.672 63 180 62.3284 180 61.5C180 60.6716 180.672 60 181.5 60C182.328 60 183 60.6716 183 61.5Z" fill="black"/>
<path d="M203 41.5C203 42.3284 202.328 43 201.5 43C200.672 43 200 42.3284 200 41.5C200 40.6716 200.672 40 201.5 40C202.328 40 203 40.6716 203 41.5Z" fill="black"/>
<path d="M223 41.5C223 42.3284 222.328 43 221.5 43C220.672 43 220 42.3284 220 41.5C220 40.6716 220.672 40 221.5 40C222.328 40 223 40.6716 223 41.5Z" fill="black"/>
<path d="M203 61.5C203 62.3284 202.328 63 201.5 63C200.672 63 200 62.3284 200 61.5C200 60.6716 200.672 60 201.5 60C202.328 60 203 60.6716 203 61.5Z" fill="black"/>
<path d="M223 61.5C223 62.3284 222.328 63 221.5 63C220.672 63 220 62.3284 220 61.5C220 60.6716 220.672 60 221.5 60C222.328 60 223 60.6716 223 61.5Z" fill="black"/>
<path d="M243 41.5C243 42.3284 242.328 43 241.5 43C240.672 43 240 42.3284 240 41.5C240 40.6716 240.672 40 241.5 40C242.328 40 243 40.6716 243 41.5Z" fill="black"/>
<path d="M263 41.5C263 42.3284 262.328 43 261.5 43C260.672 43 260 42.3284 260 41.5C260 40.6716 260.672 40 261.5 40C262.328 40 263 40.6716 263 41.5Z" fill="black"/>
<path d="M243 61.5C243 62.3284 242.328 63 241.5 63C240.672 63 240 62.3284 240 61.5C240 60.6716 240.672 60 241.5 60C242.328 60 243 60.6716 243 61.5Z" fill="black"/>
<path d="M263 61.5C263 62.3284 262.328 63 261.5 63C260.672 63 260 62.3284 260 61.5C260 60.6716 260.672 60 261.5 60C262.328 60 263 60.6716 263 61.5Z" fill="black"/>
<path d="M283 41.5C283 42.3284 282.328 43 281.5 43C280.672 43 280 42.3284 280 41.5C280 40.6716 280.672 40 281.5 40C282.328 40 283 40.6716 283 41.5Z" fill="black"/>
<path d="M303 41.5C303 42.3284 302.328 43 301.5 43C300.672 43 300 42.3284 300 41.5C300 40.6716 300.672 40 301.5 40C302.328 40 303 40.6716 303 41.5Z" fill="black"/>
<path d="M283 61.5C283 62.3284 282.328 63 281.5 63C280.672 63 280 62.3284 280 61.5C280 60.6716 280.672 60 281.5 60C282.328 60 283 60.6716 283 61.5Z" fill="black"/>
<path d="M303 61.5C303 62.3284 302.328 63 301.5 63C300.672 63 300 62.3284 300 61.5C300 60.6716 300.672 60 301.5 60C302.328 60 303 60.6716 303 61.5Z" fill="black"/>
<path d="M3 81.5C3 82.3284 2.32843 83 1.5 83C0.671573 83 0 82.3284 0 81.5C0 80.6716 0.671573 80 1.5 80C2.32843 80 3 80.6716 3 81.5Z" fill="black"/>
<path d="M23 81.5C23 82.3284 22.3284 83 21.5 83C20.6716 83 20 82.3284 20 81.5C20 80.6716 20.6716 80 21.5 80C22.3284 80 23 80.6716 23 81.5Z" fill="black"/>
<path d="M3 101.5C3 102.328 2.32843 103 1.5 103C0.671573 103 0 102.328 0 101.5C0 100.672 0.671573 100 1.5 100C2.32843 100 3 100.672 3 101.5Z" fill="black"/>
<path d="M23 101.5C23 102.328 22.3284 103 21.5 103C20.6716 103 20 102.328 20 101.5C20 100.672 20.6716 100 21.5 100C22.3284 100 23 100.672 23 101.5Z" fill="black"/>
<path d="M43 81.5C43 82.3284 42.3284 83 41.5 83C40.6716 83 40 82.3284 40 81.5C40 80.6716 40.6716 80 41.5 80C42.3284 80 43 80.6716 43 81.5Z" fill="black"/>
<path d="M63 81.5C63 82.3284 62.3284 83 61.5 83C60.6716 83 60 82.3284 60 81.5C60 80.6716 60.6716 80 61.5 80C62.3284 80 63 80.6716 63 81.5Z" fill="black"/>
<path d="M43 101.5C43 102.328 42.3284 103 41.5 103C40.6716 103 40 102.328 40 101.5C40 100.672 40.6716 100 41.5 100C42.3284 100 43 100.672 43 101.5Z" fill="black"/>
<path d="M63 101.5C63 102.328 62.3284 103 61.5 103C60.6716 103 60 102.328 60 101.5C60 100.672 60.6716 100 61.5 100C62.3284 100 63 100.672 63 101.5Z" fill="black"/>
<path d="M83 81.5C83 82.3284 82.3284 83 81.5 83C80.6716 83 80 82.3284 80 81.5C80 80.6716 80.6716 80 81.5 80C82.3284 80 83 80.6716 83 81.5Z" fill="black"/>
<path d="M103 81.5C103 82.3284 102.328 83 101.5 83C100.672 83 100 82.3284 100 81.5C100 80.6716 100.672 80 101.5 80C102.328 80 103 80.6716 103 81.5Z" fill="black"/>
<path d="M83 101.5C83 102.328 82.3284 103 81.5 103C80.6716 103 80 102.328 80 101.5C80 100.672 80.6716 100 81.5 100C82.3284 100 83 100.672 83 101.5Z" fill="black"/>
<path d="M103 101.5C103 102.328 102.328 103 101.5 103C100.672 103 100 102.328 100 101.5C100 100.672 100.672 100 101.5 100C102.328 100 103 100.672 103 101.5Z" fill="black"/>
<path d="M123 81.5C123 82.3284 122.328 83 121.5 83C120.672 83 120 82.3284 120 81.5C120 80.6716 120.672 80 121.5 80C122.328 80 123 80.6716 123 81.5Z" fill="black"/>
<path d="M143 81.5C143 82.3284 142.328 83 141.5 83C140.672 83 140 82.3284 140 81.5C140 80.6716 140.672 80 141.5 80C142.328 80 143 80.6716 143 81.5Z" fill="black"/>
<path d="M123 101.5C123 102.328 122.328 103 121.5 103C120.672 103 120 102.328 120 101.5C120 100.672 120.672 100 121.5 100C122.328 100 123 100.672 123 101.5Z" fill="black"/>
<path d="M143 101.5C143 102.328 142.328 103 141.5 103C140.672 103 140 102.328 140 101.5C140 100.672 140.672 100 141.5 100C142.328 100 143 100.672 143 101.5Z" fill="black"/>
<path d="M163 81.5C163 82.3284 162.328 83 161.5 83C160.672 83 160 82.3284 160 81.5C160 80.6716 160.672 80 161.5 80C162.328 80 163 80.6716 163 81.5Z" fill="black"/>
<path d="M183 81.5C183 82.3284 182.328 83 181.5 83C180.672 83 180 82.3284 180 81.5C180 80.6716 180.672 80 181.5 80C182.328 80 183 80.6716 183 81.5Z" fill="black"/>
<path d="M163 101.5C163 102.328 162.328 103 161.5 103C160.672 103 160 102.328 160 101.5C160 100.672 160.672 100 161.5 100C162.328 100 163 100.672 163 101.5Z" fill="black"/>
<path d="M183 101.5C183 102.328 182.328 103 181.5 103C180.672 103 180 102.328 180 101.5C180 100.672 180.672 100 181.5 100C182.328 100 183 100.672 183 101.5Z" fill="black"/>
<path d="M203 81.5C203 82.3284 202.328 83 201.5 83C200.672 83 200 82.3284 200 81.5C200 80.6716 200.672 80 201.5 80C202.328 80 203 80.6716 203 81.5Z" fill="black"/>
<path d="M223 81.5C223 82.3284 222.328 83 221.5 83C220.672 83 220 82.3284 220 81.5C220 80.6716 220.672 80 221.5 80C222.328 80 223 80.6716 223 81.5Z" fill="black"/>
<path d="M203 101.5C203 102.328 202.328 103 201.5 103C200.672 103 200 102.328 200 101.5C200 100.672 200.672 100 201.5 100C202.328 100 203 100.672 203 101.5Z" fill="black"/>
<path d="M223 101.5C223 102.328 222.328 103 221.5 103C220.672 103 220 102.328 220 101.5C220 100.672 220.672 100 221.5 100C222.328 100 223 100.672 223 101.5Z" fill="black"/>
<path d="M243 81.5C243 82.3284 242.328 83 241.5 83C240.672 83 240 82.3284 240 81.5C240 80.6716 240.672 80 241.5 80C242.328 80 243 80.6716 243 81.5Z" fill="black"/>
<path d="M263 81.5C263 82.3284 262.328 83 261.5 83C260.672 83 260 82.3284 260 81.5C260 80.6716 260.672 80 261.5 80C262.328 80 263 80.6716 263 81.5Z" fill="black"/>
<path d="M243 101.5C243 102.328 242.328 103 241.5 103C240.672 103 240 102.328 240 101.5C240 100.672 240.672 100 241.5 100C242.328 100 243 100.672 243 101.5Z" fill="black"/>
<path d="M263 101.5C263 102.328 262.328 103 261.5 103C260.672 103 260 102.328 260 101.5C260 100.672 260.672 100 261.5 100C262.328 100 263 100.672 263 101.5Z" fill="black"/>
<path d="M283 81.5C283 82.3284 282.328 83 281.5 83C280.672 83 280 82.3284 280 81.5C280 80.6716 280.672 80 281.5 80C282.328 80 283 80.6716 283 81.5Z" fill="black"/>
<path d="M303 81.5C303 82.3284 302.328 83 301.5 83C300.672 83 300 82.3284 300 81.5C300 80.6716 300.672 80 301.5 80C302.328 80 303 80.6716 303 81.5Z" fill="black"/>
<path d="M283 101.5C283 102.328 282.328 103 281.5 103C280.672 103 280 102.328 280 101.5C280 100.672 280.672 100 281.5 100C282.328 100 283 100.672 283 101.5Z" fill="black"/>
<path d="M303 101.5C303 102.328 302.328 103 301.5 103C300.672 103 300 102.328 300 101.5C300 100.672 300.672 100 301.5 100C302.328 100 303 100.672 303 101.5Z" fill="black"/>
<path d="M3 121.5C3 122.328 2.32843 123 1.5 123C0.671573 123 0 122.328 0 121.5C0 120.672 0.671573 120 1.5 120C2.32843 120 3 120.672 3 121.5Z" fill="black"/>
<path d="M23 121.5C23 122.328 22.3284 123 21.5 123C20.6716 123 20 122.328 20 121.5C20 120.672 20.6716 120 21.5 120C22.3284 120 23 120.672 23 121.5Z" fill="black"/>
<path d="M3 141.5C3 142.328 2.32843 143 1.5 143C0.671573 143 0 142.328 0 141.5C0 140.672 0.671573 140 1.5 140C2.32843 140 3 140.672 3 141.5Z" fill="black"/>
<path d="M23 141.5C23 142.328 22.3284 143 21.5 143C20.6716 143 20 142.328 20 141.5C20 140.672 20.6716 140 21.5 140C22.3284 140 23 140.672 23 141.5Z" fill="black"/>
<path d="M43 121.5C43 122.328 42.3284 123 41.5 123C40.6716 123 40 122.328 40 121.5C40 120.672 40.6716 120 41.5 120C42.3284 120 43 120.672 43 121.5Z" fill="black"/>
<path d="M63 121.5C63 122.328 62.3284 123 61.5 123C60.6716 123 60 122.328 60 121.5C60 120.672 60.6716 120 61.5 120C62.3284 120 63 120.672 63 121.5Z" fill="black"/>
<path d="M43 141.5C43 142.328 42.3284 143 41.5 143C40.6716 143 40 142.328 40 141.5C40 140.672 40.6716 140 41.5 140C42.3284 140 43 140.672 43 141.5Z" fill="black"/>
<path d="M63 141.5C63 142.328 62.3284 143 61.5 143C60.6716 143 60 142.328 60 141.5C60 140.672 60.6716 140 61.5 140C62.3284 140 63 140.672 63 141.5Z" fill="black"/>
<path d="M83 121.5C83 122.328 82.3284 123 81.5 123C80.6716 123 80 122.328 80 121.5C80 120.672 80.6716 120 81.5 120C82.3284 120 83 120.672 83 121.5Z" fill="black"/>
<path d="M103 121.5C103 122.328 102.328 123 101.5 123C100.672 123 100 122.328 100 121.5C100 120.672 100.672 120 101.5 120C102.328 120 103 120.672 103 121.5Z" fill="black"/>
<path d="M83 141.5C83 142.328 82.3284 143 81.5 143C80.6716 143 80 142.328 80 141.5C80 140.672 80.6716 140 81.5 140C82.3284 140 83 140.672 83 141.5Z" fill="black"/>
<path d="M103 141.5C103 142.328 102.328 143 101.5 143C100.672 143 100 142.328 100 141.5C100 140.672 100.672 140 101.5 140C102.328 140 103 140.672 103 141.5Z" fill="black"/>
<path d="M123 121.5C123 122.328 122.328 123 121.5 123C120.672 123 120 122.328 120 121.5C120 120.672 120.672 120 121.5 120C122.328 120 123 120.672 123 121.5Z" fill="black"/>
<path d="M143 121.5C143 122.328 142.328 123 141.5 123C140.672 123 140 122.328 140 121.5C140 120.672 140.672 120 141.5 120C142.328 120 143 120.672 143 121.5Z" fill="black"/>
<path d="M123 141.5C123 142.328 122.328 143 121.5 143C120.672 143 120 142.328 120 141.5C120 140.672 120.672 140 121.5 140C122.328 140 123 140.672 123 141.5Z" fill="black"/>
<path d="M143 141.5C143 142.328 142.328 143 141.5 143C140.672 143 140 142.328 140 141.5C140 140.672 140.672 140 141.5 140C142.328 140 143 140.672 143 141.5Z" fill="black"/>
<path d="M163 121.5C163 122.328 162.328 123 161.5 123C160.672 123 160 122.328 160 121.5C160 120.672 160.672 120 161.5 120C162.328 120 163 120.672 163 121.5Z" fill="black"/>
<path d="M183 121.5C183 122.328 182.328 123 181.5 123C180.672 123 180 122.328 180 121.5C180 120.672 180.672 120 181.5 120C182.328 120 183 120.672 183 121.5Z" fill="black"/>
<path d="M163 141.5C163 142.328 162.328 143 161.5 143C160.672 143 160 142.328 160 141.5C160 140.672 160.672 140 161.5 140C162.328 140 163 140.672 163 141.5Z" fill="black"/>
<path d="M183 141.5C183 142.328 182.328 143 181.5 143C180.672 143 180 142.328 180 141.5C180 140.672 180.672 140 181.5 140C182.328 140 183 140.672 183 141.5Z" fill="black"/>
<path d="M203 121.5C203 122.328 202.328 123 201.5 123C200.672 123 200 122.328 200 121.5C200 120.672 200.672 120 201.5 120C202.328 120 203 120.672 203 121.5Z" fill="black"/>
<path d="M223 121.5C223 122.328 222.328 123 221.5 123C220.672 123 220 122.328 220 121.5C220 120.672 220.672 120 221.5 120C222.328 120 223 120.672 223 121.5Z" fill="black"/>
<path d="M203 141.5C203 142.328 202.328 143 201.5 143C200.672 143 200 142.328 200 141.5C200 140.672 200.672 140 201.5 140C202.328 140 203 140.672 203 141.5Z" fill="black"/>
<path d="M223 141.5C223 142.328 222.328 143 221.5 143C220.672 143 220 142.328 220 141.5C220 140.672 220.672 140 221.5 140C222.328 140 223 140.672 223 141.5Z" fill="black"/>
<path d="M243 121.5C243 122.328 242.328 123 241.5 123C240.672 123 240 122.328 240 121.5C240 120.672 240.672 120 241.5 120C242.328 120 243 120.672 243 121.5Z" fill="black"/>
<path d="M263 121.5C263 122.328 262.328 123 261.5 123C260.672 123 260 122.328 260 121.5C260 120.672 260.672 120 261.5 120C262.328 120 263 120.672 263 121.5Z" fill="black"/>
<path d="M243 141.5C243 142.328 242.328 143 241.5 143C240.672 143 240 142.328 240 141.5C240 140.672 240.672 140 241.5 140C242.328 140 243 140.672 243 141.5Z" fill="black"/>
<path d="M263 141.5C263 142.328 262.328 143 261.5 143C260.672 143 260 142.328 260 141.5C260 140.672 260.672 140 261.5 140C262.328 140 263 140.672 263 141.5Z" fill="black"/>
<path d="M283 121.5C283 122.328 282.328 123 281.5 123C280.672 123 280 122.328 280 121.5C280 120.672 280.672 120 281.5 120C282.328 120 283 120.672 283 121.5Z" fill="black"/>
<path d="M303 121.5C303 122.328 302.328 123 301.5 123C300.672 123 300 122.328 300 121.5C300 120.672 300.672 120 301.5 120C302.328 120 303 120.672 303 121.5Z" fill="black"/>
<path d="M283 141.5C283 142.328 282.328 143 281.5 143C280.672 143 280 142.328 280 141.5C280 140.672 280.672 140 281.5 140C282.328 140 283 140.672 283 141.5Z" fill="black"/>
<path d="M303 141.5C303 142.328 302.328 143 301.5 143C300.672 143 300 142.328 300 141.5C300 140.672 300.672 140 301.5 140C302.328 140 303 140.672 303 141.5Z" fill="black"/>
<path d="M3 161.5C3 162.328 2.32843 163 1.5 163C0.671573 163 0 162.328 0 161.5C0 160.672 0.671573 160 1.5 160C2.32843 160 3 160.672 3 161.5Z" fill="black"/>
<path d="M23 161.5C23 162.328 22.3284 163 21.5 163C20.6716 163 20 162.328 20 161.5C20 160.672 20.6716 160 21.5 160C22.3284 160 23 160.672 23 161.5Z" fill="black"/>
<path d="M3 181.5C3 182.328 2.32843 183 1.5 183C0.671573 183 0 182.328 0 181.5C0 180.672 0.671573 180 1.5 180C2.32843 180 3 180.672 3 181.5Z" fill="black"/>
<path d="M23 181.5C23 182.328 22.3284 183 21.5 183C20.6716 183 20 182.328 20 181.5C20 180.672 20.6716 180 21.5 180C22.3284 180 23 180.672 23 181.5Z" fill="black"/>
<path d="M43 161.5C43 162.328 42.3284 163 41.5 163C40.6716 163 40 162.328 40 161.5C40 160.672 40.6716 160 41.5 160C42.3284 160 43 160.672 43 161.5Z" fill="black"/>
<path d="M63 161.5C63 162.328 62.3284 163 61.5 163C60.6716 163 60 162.328 60 161.5C60 160.672 60.6716 160 61.5 160C62.3284 160 63 160.672 63 161.5Z" fill="black"/>
<path d="M43 181.5C43 182.328 42.3284 183 41.5 183C40.6716 183 40 182.328 40 181.5C40 180.672 40.6716 180 41.5 180C42.3284 180 43 180.672 43 181.5Z" fill="black"/>
<path d="M63 181.5C63 182.328 62.3284 183 61.5 183C60.6716 183 60 182.328 60 181.5C60 180.672 60.6716 180 61.5 180C62.3284 180 63 180.672 63 181.5Z" fill="black"/>
<path d="M83 161.5C83 162.328 82.3284 163 81.5 163C80.6716 163 80 162.328 80 161.5C80 160.672 80.6716 160 81.5 160C82.3284 160 83 160.672 83 161.5Z" fill="black"/>
<path d="M103 161.5C103 162.328 102.328 163 101.5 163C100.672 163 100 162.328 100 161.5C100 160.672 100.672 160 101.5 160C102.328 160 103 160.672 103 161.5Z" fill="black"/>
<path d="M83 181.5C83 182.328 82.3284 183 81.5 183C80.6716 183 80 182.328 80 181.5C80 180.672 80.6716 180 81.5 180C82.3284 180 83 180.672 83 181.5Z" fill="black"/>
<path d="M103 181.5C103 182.328 102.328 183 101.5 183C100.672 183 100 182.328 100 181.5C100 180.672 100.672 180 101.5 180C102.328 180 103 180.672 103 181.5Z" fill="black"/>
<path d="M123 161.5C123 162.328 122.328 163 121.5 163C120.672 163 120 162.328 120 161.5C120 160.672 120.672 160 121.5 160C122.328 160 123 160.672 123 161.5Z" fill="black"/>
<path d="M143 161.5C143 162.328 142.328 163 141.5 163C140.672 163 140 162.328 140 161.5C140 160.672 140.672 160 141.5 160C142.328 160 143 160.672 143 161.5Z" fill="black"/>
<path d="M123 181.5C123 182.328 122.328 183 121.5 183C120.672 183 120 182.328 120 181.5C120 180.672 120.672 180 121.5 180C122.328 180 123 180.672 123 181.5Z" fill="black"/>
<path d="M143 181.5C143 182.328 142.328 183 141.5 183C140.672 183 140 182.328 140 181.5C140 180.672 140.672 180 141.5 180C142.328 180 143 180.672 143 181.5Z" fill="black"/>
<path d="M163 161.5C163 162.328 162.328 163 161.5 163C160.672 163 160 162.328 160 161.5C160 160.672 160.672 160 161.5 160C162.328 160 163 160.672 163 161.5Z" fill="black"/>
<path d="M183 161.5C183 162.328 182.328 163 181.5 163C180.672 163 180 162.328 180 161.5C180 160.672 180.672 160 181.5 160C182.328 160 183 160.672 183 161.5Z" fill="black"/>
<path d="M163 181.5C163 182.328 162.328 183 161.5 183C160.672 183 160 182.328 160 181.5C160 180.672 160.672 180 161.5 180C162.328 180 163 180.672 163 181.5Z" fill="black"/>
<path d="M183 181.5C183 182.328 182.328 183 181.5 183C180.672 183 180 182.328 180 181.5C180 180.672 180.672 180 181.5 180C182.328 180 183 180.672 183 181.5Z" fill="black"/>
<path d="M203 161.5C203 162.328 202.328 163 201.5 163C200.672 163 200 162.328 200 161.5C200 160.672 200.672 160 201.5 160C202.328 160 203 160.672 203 161.5Z" fill="black"/>
<path d="M223 161.5C223 162.328 222.328 163 221.5 163C220.672 163 220 162.328 220 161.5C220 160.672 220.672 160 221.5 160C222.328 160 223 160.672 223 161.5Z" fill="black"/>
<path d="M203 181.5C203 182.328 202.328 183 201.5 183C200.672 183 200 182.328 200 181.5C200 180.672 200.672 180 201.5 180C202.328 180 203 180.672 203 181.5Z" fill="black"/>
<path d="M223 181.5C223 182.328 222.328 183 221.5 183C220.672 183 220 182.328 220 181.5C220 180.672 220.672 180 221.5 180C222.328 180 223 180.672 223 181.5Z" fill="black"/>
<path d="M243 161.5C243 162.328 242.328 163 241.5 163C240.672 163 240 162.328 240 161.5C240 160.672 240.672 160 241.5 160C242.328 160 243 160.672 243 161.5Z" fill="black"/>
<path d="M263 161.5C263 162.328 262.328 163 261.5 163C260.672 163 260 162.328 260 161.5C260 160.672 260.672 160 261.5 160C262.328 160 263 160.672 263 161.5Z" fill="black"/>
<path d="M243 181.5C243 182.328 242.328 183 241.5 183C240.672 183 240 182.328 240 181.5C240 180.672 240.672 180 241.5 180C242.328 180 243 180.672 243 181.5Z" fill="black"/>
<path d="M263 181.5C263 182.328 262.328 183 261.5 183C260.672 183 260 182.328 260 181.5C260 180.672 260.672 180 261.5 180C262.328 180 263 180.672 263 181.5Z" fill="black"/>
<path d="M283 161.5C283 162.328 282.328 163 281.5 163C280.672 163 280 162.328 280 161.5C280 160.672 280.672 160 281.5 160C282.328 160 283 160.672 283 161.5Z" fill="black"/>
<path d="M303 161.5C303 162.328 302.328 163 301.5 163C300.672 163 300 162.328 300 161.5C300 160.672 300.672 160 301.5 160C302.328 160 303 160.672 303 161.5Z" fill="black"/>
<path d="M283 181.5C283 182.328 282.328 183 281.5 183C280.672 183 280 182.328 280 181.5C280 180.672 280.672 180 281.5 180C282.328 180 283 180.672 283 181.5Z" fill="black"/>
<path d="M303 181.5C303 182.328 302.328 183 301.5 183C300.672 183 300 182.328 300 181.5C300 180.672 300.672 180 301.5 180C302.328 180 303 180.672 303 181.5Z" fill="black"/>
<path d="M3 201.5C3 202.328 2.32843 203 1.5 203C0.671573 203 0 202.328 0 201.5C0 200.672 0.671573 200 1.5 200C2.32843 200 3 200.672 3 201.5Z" fill="black"/>
<path d="M23 201.5C23 202.328 22.3284 203 21.5 203C20.6716 203 20 202.328 20 201.5C20 200.672 20.6716 200 21.5 200C22.3284 200 23 200.672 23 201.5Z" fill="black"/>
<path d="M3 221.5C3 222.328 2.32843 223 1.5 223C0.671573 223 0 222.328 0 221.5C0 220.672 0.671573 220 1.5 220C2.32843 220 3 220.672 3 221.5Z" fill="black"/>
<path d="M23 221.5C23 222.328 22.3284 223 21.5 223C20.6716 223 20 222.328 20 221.5C20 220.672 20.6716 220 21.5 220C22.3284 220 23 220.672 23 221.5Z" fill="black"/>
<path d="M43 201.5C43 202.328 42.3284 203 41.5 203C40.6716 203 40 202.328 40 201.5C40 200.672 40.6716 200 41.5 200C42.3284 200 43 200.672 43 201.5Z" fill="black"/>
<path d="M63 201.5C63 202.328 62.3284 203 61.5 203C60.6716 203 60 202.328 60 201.5C60 200.672 60.6716 200 61.5 200C62.3284 200 63 200.672 63 201.5Z" fill="black"/>
<path d="M43 221.5C43 222.328 42.3284 223 41.5 223C40.6716 223 40 222.328 40 221.5C40 220.672 40.6716 220 41.5 220C42.3284 220 43 220.672 43 221.5Z" fill="black"/>
<path d="M63 221.5C63 222.328 62.3284 223 61.5 223C60.6716 223 60 222.328 60 221.5C60 220.672 60.6716 220 61.5 220C62.3284 220 63 220.672 63 221.5Z" fill="black"/>
<path d="M83 201.5C83 202.328 82.3284 203 81.5 203C80.6716 203 80 202.328 80 201.5C80 200.672 80.6716 200 81.5 200C82.3284 200 83 200.672 83 201.5Z" fill="black"/>
<path d="M103 201.5C103 202.328 102.328 203 101.5 203C100.672 203 100 202.328 100 201.5C100 200.672 100.672 200 101.5 200C102.328 200 103 200.672 103 201.5Z" fill="black"/>
<path d="M83 221.5C83 222.328 82.3284 223 81.5 223C80.6716 223 80 222.328 80 221.5C80 220.672 80.6716 220 81.5 220C82.3284 220 83 220.672 83 221.5Z" fill="black"/>
<path d="M103 221.5C103 222.328 102.328 223 101.5 223C100.672 223 100 222.328 100 221.5C100 220.672 100.672 220 101.5 220C102.328 220 103 220.672 103 221.5Z" fill="black"/>
<path d="M123 201.5C123 202.328 122.328 203 121.5 203C120.672 203 120 202.328 120 201.5C120 200.672 120.672 200 121.5 200C122.328 200 123 200.672 123 201.5Z" fill="black"/>
<path d="M143 201.5C143 202.328 142.328 203 141.5 203C140.672 203 140 202.328 140 201.5C140 200.672 140.672 200 141.5 200C142.328 200 143 200.672 143 201.5Z" fill="black"/>
<path d="M123 221.5C123 222.328 122.328 223 121.5 223C120.672 223 120 222.328 120 221.5C120 220.672 120.672 220 121.5 220C122.328 220 123 220.672 123 221.5Z" fill="black"/>
<path d="M143 221.5C143 222.328 142.328 223 141.5 223C140.672 223 140 222.328 140 221.5C140 220.672 140.672 220 141.5 220C142.328 220 143 220.672 143 221.5Z" fill="black"/>
<path d="M163 201.5C163 202.328 162.328 203 161.5 203C160.672 203 160 202.328 160 201.5C160 200.672 160.672 200 161.5 200C162.328 200 163 200.672 163 201.5Z" fill="black"/>
<path d="M183 201.5C183 202.328 182.328 203 181.5 203C180.672 203 180 202.328 180 201.5C180 200.672 180.672 200 181.5 200C182.328 200 183 200.672 183 201.5Z" fill="black"/>
<path d="M163 221.5C163 222.328 162.328 223 161.5 223C160.672 223 160 222.328 160 221.5C160 220.672 160.672 220 161.5 220C162.328 220 163 220.672 163 221.5Z" fill="black"/>
<path d="M183 221.5C183 222.328 182.328 223 181.5 223C180.672 223 180 222.328 180 221.5C180 220.672 180.672 220 181.5 220C182.328 220 183 220.672 183 221.5Z" fill="black"/>
<path d="M203 201.5C203 202.328 202.328 203 201.5 203C200.672 203 200 202.328 200 201.5C200 200.672 200.672 200 201.5 200C202.328 200 203 200.672 203 201.5Z" fill="black"/>
<path d="M223 201.5C223 202.328 222.328 203 221.5 203C220.672 203 220 202.328 220 201.5C220 200.672 220.672 200 221.5 200C222.328 200 223 200.672 223 201.5Z" fill="black"/>
<path d="M203 221.5C203 222.328 202.328 223 201.5 223C200.672 223 200 222.328 200 221.5C200 220.672 200.672 220 201.5 220C202.328 220 203 220.672 203 221.5Z" fill="black"/>
<path d="M223 221.5C223 222.328 222.328 223 221.5 223C220.672 223 220 222.328 220 221.5C220 220.672 220.672 220 221.5 220C222.328 220 223 220.672 223 221.5Z" fill="black"/>
<path d="M243 201.5C243 202.328 242.328 203 241.5 203C240.672 203 240 202.328 240 201.5C240 200.672 240.672 200 241.5 200C242.328 200 243 200.672 243 201.5Z" fill="black"/>
<path d="M263 201.5C263 202.328 262.328 203 261.5 203C260.672 203 260 202.328 260 201.5C260 200.672 260.672 200 261.5 200C262.328 200 263 200.672 263 201.5Z" fill="black"/>
<path d="M243 221.5C243 222.328 242.328 223 241.5 223C240.672 223 240 222.328 240 221.5C240 220.672 240.672 220 241.5 220C242.328 220 243 220.672 243 221.5Z" fill="black"/>
<path d="M263 221.5C263 222.328 262.328 223 261.5 223C260.672 223 260 222.328 260 221.5C260 220.672 260.672 220 261.5 220C262.328 220 263 220.672 263 221.5Z" fill="black"/>
<path d="M283 201.5C283 202.328 282.328 203 281.5 203C280.672 203 280 202.328 280 201.5C280 200.672 280.672 200 281.5 200C282.328 200 283 200.672 283 201.5Z" fill="black"/>
<path d="M303 201.5C303 202.328 302.328 203 301.5 203C300.672 203 300 202.328 300 201.5C300 200.672 300.672 200 301.5 200C302.328 200 303 200.672 303 201.5Z" fill="black"/>
<path d="M283 221.5C283 222.328 282.328 223 281.5 223C280.672 223 280 222.328 280 221.5C280 220.672 280.672 220 281.5 220C282.328 220 283 220.672 283 221.5Z" fill="black"/>
<path d="M303 221.5C303 222.328 302.328 223 301.5 223C300.672 223 300 222.328 300 221.5C300 220.672 300.672 220 301.5 220C302.328 220 303 220.672 303 221.5Z" fill="black"/>
<path d="M3 241.5C3 242.328 2.32843 243 1.5 243C0.671573 243 0 242.328 0 241.5C0 240.672 0.671573 240 1.5 240C2.32843 240 3 240.672 3 241.5Z" fill="black"/>
<path d="M23 241.5C23 242.328 22.3284 243 21.5 243C20.6716 243 20 242.328 20 241.5C20 240.672 20.6716 240 21.5 240C22.3284 240 23 240.672 23 241.5Z" fill="black"/>
<path d="M3 261.5C3 262.328 2.32843 263 1.5 263C0.671573 263 0 262.328 0 261.5C0 260.672 0.671573 260 1.5 260C2.32843 260 3 260.672 3 261.5Z" fill="black"/>
<path d="M23 261.5C23 262.328 22.3284 263 21.5 263C20.6716 263 20 262.328 20 261.5C20 260.672 20.6716 260 21.5 260C22.3284 260 23 260.672 23 261.5Z" fill="black"/>
<path d="M43 241.5C43 242.328 42.3284 243 41.5 243C40.6716 243 40 242.328 40 241.5C40 240.672 40.6716 240 41.5 240C42.3284 240 43 240.672 43 241.5Z" fill="black"/>
<path d="M63 241.5C63 242.328 62.3284 243 61.5 243C60.6716 243 60 242.328 60 241.5C60 240.672 60.6716 240 61.5 240C62.3284 240 63 240.672 63 241.5Z" fill="black"/>
<path d="M43 261.5C43 262.328 42.3284 263 41.5 263C40.6716 263 40 262.328 40 261.5C40 260.672 40.6716 260 41.5 260C42.3284 260 43 260.672 43 261.5Z" fill="black"/>
<path d="M63 261.5C63 262.328 62.3284 263 61.5 263C60.6716 263 60 262.328 60 261.5C60 260.672 60.6716 260 61.5 260C62.3284 260 63 260.672 63 261.5Z" fill="black"/>
<path d="M83 241.5C83 242.328 82.3284 243 81.5 243C80.6716 243 80 242.328 80 241.5C80 240.672 80.6716 240 81.5 240C82.3284 240 83 240.672 83 241.5Z" fill="black"/>
<path d="M103 241.5C103 242.328 102.328 243 101.5 243C100.672 243 100 242.328 100 241.5C100 240.672 100.672 240 101.5 240C102.328 240 103 240.672 103 241.5Z" fill="black"/>
<path d="M83 261.5C83 262.328 82.3284 263 81.5 263C80.6716 263 80 262.328 80 261.5C80 260.672 80.6716 260 81.5 260C82.3284 260 83 260.672 83 261.5Z" fill="black"/>
<path d="M103 261.5C103 262.328 102.328 263 101.5 263C100.672 263 100 262.328 100 261.5C100 260.672 100.672 260 101.5 260C102.328 260 103 260.672 103 261.5Z" fill="black"/>
<path d="M123 241.5C123 242.328 122.328 243 121.5 243C120.672 243 120 242.328 120 241.5C120 240.672 120.672 240 121.5 240C122.328 240 123 240.672 123 241.5Z" fill="black"/>
<path d="M143 241.5C143 242.328 142.328 243 141.5 243C140.672 243 140 242.328 140 241.5C140 240.672 140.672 240 141.5 240C142.328 240 143 240.672 143 241.5Z" fill="black"/>
<path d="M123 261.5C123 262.328 122.328 263 121.5 263C120.672 263 120 262.328 120 261.5C120 260.672 120.672 260 121.5 260C122.328 260 123 260.672 123 261.5Z" fill="black"/>
<path d="M143 261.5C143 262.328 142.328 263 141.5 263C140.672 263 140 262.328 140 261.5C140 260.672 140.672 260 141.5 260C142.328 260 143 260.672 143 261.5Z" fill="black"/>
<path d="M163 241.5C163 242.328 162.328 243 161.5 243C160.672 243 160 242.328 160 241.5C160 240.672 160.672 240 161.5 240C162.328 240 163 240.672 163 241.5Z" fill="black"/>
<path d="M183 241.5C183 242.328 182.328 243 181.5 243C180.672 243 180 242.328 180 241.5C180 240.672 180.672 240 181.5 240C182.328 240 183 240.672 183 241.5Z" fill="black"/>
<path d="M163 261.5C163 262.328 162.328 263 161.5 263C160.672 263 160 262.328 160 261.5C160 260.672 160.672 260 161.5 260C162.328 260 163 260.672 163 261.5Z" fill="black"/>
<path d="M183 261.5C183 262.328 182.328 263 181.5 263C180.672 263 180 262.328 180 261.5C180 260.672 180.672 260 181.5 260C182.328 260 183 260.672 183 261.5Z" fill="black"/>
<path d="M203 241.5C203 242.328 202.328 243 201.5 243C200.672 243 200 242.328 200 241.5C200 240.672 200.672 240 201.5 240C202.328 240 203 240.672 203 241.5Z" fill="black"/>
<path d="M223 241.5C223 242.328 222.328 243 221.5 243C220.672 243 220 242.328 220 241.5C220 240.672 220.672 240 221.5 240C222.328 240 223 240.672 223 241.5Z" fill="black"/>
<path d="M203 261.5C203 262.328 202.328 263 201.5 263C200.672 263 200 262.328 200 261.5C200 260.672 200.672 260 201.5 260C202.328 260 203 260.672 203 261.5Z" fill="black"/>
<path d="M223 261.5C223 262.328 222.328 263 221.5 263C220.672 263 220 262.328 220 261.5C220 260.672 220.672 260 221.5 260C222.328 260 223 260.672 223 261.5Z" fill="black"/>
<path d="M243 241.5C243 242.328 242.328 243 241.5 243C240.672 243 240 242.328 240 241.5C240 240.672 240.672 240 241.5 240C242.328 240 243 240.672 243 241.5Z" fill="black"/>
<path d="M263 241.5C263 242.328 262.328 243 261.5 243C260.672 243 260 242.328 260 241.5C260 240.672 260.672 240 261.5 240C262.328 240 263 240.672 263 241.5Z" fill="black"/>
<path d="M243 261.5C243 262.328 242.328 263 241.5 263C240.672 263 240 262.328 240 261.5C240 260.672 240.672 260 241.5 260C242.328 260 243 260.672 243 261.5Z" fill="black"/>
<path d="M263 261.5C263 262.328 262.328 263 261.5 263C260.672 263 260 262.328 260 261.5C260 260.672 260.672 260 261.5 260C262.328 260 263 260.672 263 261.5Z" fill="black"/>
<path d="M283 241.5C283 242.328 282.328 243 281.5 243C280.672 243 280 242.328 280 241.5C280 240.672 280.672 240 281.5 240C282.328 240 283 240.672 283 241.5Z" fill="black"/>
<path d="M303 241.5C303 242.328 302.328 243 301.5 243C300.672 243 300 242.328 300 241.5C300 240.672 300.672 240 301.5 240C302.328 240 303 240.672 303 241.5Z" fill="black"/>
<path d="M283 261.5C283 262.328 282.328 263 281.5 263C280.672 263 280 262.328 280 261.5C280 260.672 280.672 260 281.5 260C282.328 260 283 260.672 283 261.5Z" fill="black"/>
<path d="M303 261.5C303 262.328 302.328 263 301.5 263C300.672 263 300 262.328 300 261.5C300 260.672 300.672 260 301.5 260C302.328 260 303 260.672 303 261.5Z" fill="black"/>
<path d="M3 281.5C3 282.328 2.32843 283 1.5 283C0.671573 283 0 282.328 0 281.5C0 280.672 0.671573 280 1.5 280C2.32843 280 3 280.672 3 281.5Z" fill="black"/>
<path d="M23 281.5C23 282.328 22.3284 283 21.5 283C20.6716 283 20 282.328 20 281.5C20 280.672 20.6716 280 21.5 280C22.3284 280 23 280.672 23 281.5Z" fill="black"/>
<path d="M3 301.5C3 302.328 2.32843 303 1.5 303C0.671573 303 0 302.328 0 301.5C0 300.672 0.671573 300 1.5 300C2.32843 300 3 300.672 3 301.5Z" fill="black"/>
<path d="M23 301.5C23 302.328 22.3284 303 21.5 303C20.6716 303 20 302.328 20 301.5C20 300.672 20.6716 300 21.5 300C22.3284 300 23 300.672 23 301.5Z" fill="black"/>
<path d="M43 281.5C43 282.328 42.3284 283 41.5 283C40.6716 283 40 282.328 40 281.5C40 280.672 40.6716 280 41.5 280C42.3284 280 43 280.672 43 281.5Z" fill="black"/>
<path d="M63 281.5C63 282.328 62.3284 283 61.5 283C60.6716 283 60 282.328 60 281.5C60 280.672 60.6716 280 61.5 280C62.3284 280 63 280.672 63 281.5Z" fill="black"/>
<path d="M43 301.5C43 302.328 42.3284 303 41.5 303C40.6716 303 40 302.328 40 301.5C40 300.672 40.6716 300 41.5 300C42.3284 300 43 300.672 43 301.5Z" fill="black"/>
<path d="M63 301.5C63 302.328 62.3284 303 61.5 303C60.6716 303 60 302.328 60 301.5C60 300.672 60.6716 300 61.5 300C62.3284 300 63 300.672 63 301.5Z" fill="black"/>
<path d="M83 281.5C83 282.328 82.3284 283 81.5 283C80.6716 283 80 282.328 80 281.5C80 280.672 80.6716 280 81.5 280C82.3284 280 83 280.672 83 281.5Z" fill="black"/>
<path d="M103 281.5C103 282.328 102.328 283 101.5 283C100.672 283 100 282.328 100 281.5C100 280.672 100.672 280 101.5 280C102.328 280 103 280.672 103 281.5Z" fill="black"/>
<path d="M83 301.5C83 302.328 82.3284 303 81.5 303C80.6716 303 80 302.328 80 301.5C80 300.672 80.6716 300 81.5 300C82.3284 300 83 300.672 83 301.5Z" fill="black"/>
<path d="M103 301.5C103 302.328 102.328 303 101.5 303C100.672 303 100 302.328 100 301.5C100 300.672 100.672 300 101.5 300C102.328 300 103 300.672 103 301.5Z" fill="black"/>
<path d="M123 281.5C123 282.328 122.328 283 121.5 283C120.672 283 120 282.328 120 281.5C120 280.672 120.672 280 121.5 280C122.328 280 123 280.672 123 281.5Z" fill="black"/>
<path d="M143 281.5C143 282.328 142.328 283 141.5 283C140.672 283 140 282.328 140 281.5C140 280.672 140.672 280 141.5 280C142.328 280 143 280.672 143 281.5Z" fill="black"/>
<path d="M123 301.5C123 302.328 122.328 303 121.5 303C120.672 303 120 302.328 120 301.5C120 300.672 120.672 300 121.5 300C122.328 300 123 300.672 123 301.5Z" fill="black"/>
<path d="M143 301.5C143 302.328 142.328 303 141.5 303C140.672 303 140 302.328 140 301.5C140 300.672 140.672 300 141.5 300C142.328 300 143 300.672 143 301.5Z" fill="black"/>
<path d="M163 281.5C163 282.328 162.328 283 161.5 283C160.672 283 160 282.328 160 281.5C160 280.672 160.672 280 161.5 280C162.328 280 163 280.672 163 281.5Z" fill="black"/>
<path d="M183 281.5C183 282.328 182.328 283 181.5 283C180.672 283 180 282.328 180 281.5C180 280.672 180.672 280 181.5 280C182.328 280 183 280.672 183 281.5Z" fill="black"/>
<path d="M163 301.5C163 302.328 162.328 303 161.5 303C160.672 303 160 302.328 160 301.5C160 300.672 160.672 300 161.5 300C162.328 300 163 300.672 163 301.5Z" fill="black"/>
<path d="M183 301.5C183 302.328 182.328 303 181.5 303C180.672 303 180 302.328 180 301.5C180 300.672 180.672 300 181.5 300C182.328 300 183 300.672 183 301.5Z" fill="black"/>
<path d="M203 281.5C203 282.328 202.328 283 201.5 283C200.672 283 200 282.328 200 281.5C200 280.672 200.672 280 201.5 280C202.328 280 203 280.672 203 281.5Z" fill="black"/>
<path d="M223 281.5C223 282.328 222.328 283 221.5 283C220.672 283 220 282.328 220 281.5C220 280.672 220.672 280 221.5 280C222.328 280 223 280.672 223 281.5Z" fill="black"/>
<path d="M203 301.5C203 302.328 202.328 303 201.5 303C200.672 303 200 302.328 200 301.5C200 300.672 200.672 300 201.5 300C202.328 300 203 300.672 203 301.5Z" fill="black"/>
<path d="M223 301.5C223 302.328 222.328 303 221.5 303C220.672 303 220 302.328 220 301.5C220 300.672 220.672 300 221.5 300C222.328 300 223 300.672 223 301.5Z" fill="black"/>
<path d="M243 281.5C243 282.328 242.328 283 241.5 283C240.672 283 240 282.328 240 281.5C240 280.672 240.672 280 241.5 280C242.328 280 243 280.672 243 281.5Z" fill="black"/>
<path d="M263 281.5C263 282.328 262.328 283 261.5 283C260.672 283 260 282.328 260 281.5C260 280.672 260.672 280 261.5 280C262.328 280 263 280.672 263 281.5Z" fill="black"/>
<path d="M243 301.5C243 302.328 242.328 303 241.5 303C240.672 303 240 302.328 240 301.5C240 300.672 240.672 300 241.5 300C242.328 300 243 300.672 243 301.5Z" fill="black"/>
<path d="M263 301.5C263 302.328 262.328 303 261.5 303C260.672 303 260 302.328 260 301.5C260 300.672 260.672 300 261.5 300C262.328 300 263 300.672 263 301.5Z" fill="black"/>
<path d="M283 281.5C283 282.328 282.328 283 281.5 283C280.672 283 280 282.328 280 281.5C280 280.672 280.672 280 281.5 280C282.328 280 283 280.672 283 281.5Z" fill="black"/>
<path d="M303 281.5C303 282.328 302.328 283 301.5 283C300.672 283 300 282.328 300 281.5C300 280.672 300.672 280 301.5 280C302.328 280 303 280.672 303 281.5Z" fill="black"/>
<path d="M283 301.5C283 302.328 282.328 303 281.5 303C280.672 303 280 302.328 280 301.5C280 300.672 280.672 300 281.5 300C282.328 300 283 300.672 283 301.5Z" fill="black"/>
<path d="M303 301.5C303 302.328 302.328 303 301.5 303C300.672 303 300 302.328 300 301.5C300 300.672 300.672 300 301.5 300C302.328 300 303 300.672 303 301.5Z" fill="black"/>
</g>
</svg>
