<svg width="80" height="18" viewBox="0 0 80 18" fill="none" xmlns="http://www.w3.org/2000/svg">
<g opacity="0.8">
<path fill-rule="evenodd" clip-rule="evenodd" d="M14.3425 16.0862C18.8242 16.0862 22.4574 12.4851 22.4574 8.04308C22.4574 3.60101 18.8242 0 14.3425 0C12.6388 0 11.0577 0.520382 9.75227 1.40953C8.9514 1.10321 8.08112 0.93526 7.17126 0.93526C3.21068 0.93526 0 4.11755 0 8.04309C0 11.9686 3.21068 15.1509 7.17126 15.1509C8.08113 15.1509 8.95142 14.983 9.7523 14.6766C11.0578 15.5658 12.6388 16.0862 14.3425 16.0862ZM11.8514 13.4287C12.6097 13.7738 13.4534 13.9663 14.3425 13.9663C17.643 13.9663 20.3186 11.3144 20.3186 8.04308C20.3186 4.77179 17.643 2.11988 14.3425 2.11988C13.4534 2.11988 12.6097 2.31232 11.8514 2.65746C13.3768 3.96091 14.3425 5.89023 14.3425 8.04309C14.3425 10.196 13.3768 12.1253 11.8514 13.4287Z" fill="red"/>
</svg>
